<svg width="88" height="88" viewBox="0 0 88 88" fill="none" xmlns="http://www.w3.org/2000/svg">
    <ellipse cx="43.994" cy="41.618" rx="43.252" ry="41.618" fill="#4972FE"/>
    <path d="M21.512 87.25c-3.151 1.434-6.77-.687-7.056-4.133L13.24 68.448c-.335-4.035 4.022-6.774 7.517-4.726l14.627 8.569c3.495 2.048 3.228 7.182-.462 8.86l-13.41 6.1z" fill="#4972FE"/>
    <path d="M26.755 14.524a1.952 1.952 0 0 0-.42.103c-.09.035-.1.042-.263.204-.513.513-1.051 1.315-1.56 2.323-.714 1.416-1.31 3.09-1.842 5.173-.101.397-.116.52-.098.788.043.59.265 1.124.67 1.61.122.145.448.427.79.682.348.258.628.434.95.595.33.163.586.254.86.301.254.044.566.024.746-.047.286-.113.434-.25.712-.655a341.503 341.503 0 0 1 3.492-5.028c.712-.998 1.087-1.497 1.418-1.89.275-.327.33-.631.171-.949-.083-.164-.163-.262-.363-.439a18.177 18.177 0 0 0-.943-.792c-1.792-1.403-3.301-2.094-4.32-1.979zm.055 1.697c.03.027.06.09.076.16a.374.374 0 0 1-.018.235c-.253.806-2.177 4.634-2.645 5.26-.092.124-.243.231-.325.231-.055 0-.11-.043-.137-.107-.022-.05-.022-.062-.008-.169.077-.624.576-1.767 1.46-3.353.332-.593.926-1.592 1.197-2.014.14-.216.314-.322.4-.243z" fill="#fff"/>
    <g filter="url(#c8iscsri8a)">
        <path d="M34.61 25.724a2.24 2.24 0 0 0-.38.09c-.258.09-.448.211-.653.418-.08.08-.171.185-.204.233-.034.05-.229.412-.434.805l-.561 1.072a82.67 82.67 0 0 0-2.443 5.02c-1.265 2.858-2.198 5.477-2.972 8.335-.177.652-.232.866-.512 1.965-.452 1.773-.637 2.425-.907 3.191-.136.386-.18.49-.306.722-1.908 3.515-3.966 6.267-5.879 7.867-.378.316-.79.61-1.072.764a4.144 4.144 0 0 0-.208.123c-.167.112-.271.14-.35.1-.058-.033-.107-.136-.125-.265a2.223 2.223 0 0 1 .011-.492c.006-.038.022-.185.035-.328.368-4.001 1.782-8.844 4.16-14.256a74.753 74.753 0 0 1 1.597-3.397 61.98 61.98 0 0 1 1.503-2.859c.292-.515.498-1.13.585-1.743.025-.187.03-.766.006-.931-.14-.968-.633-1.78-1.5-2.472-.857-.684-2.055-1.212-3.053-1.345a3.864 3.864 0 0 0-.789-.001c-.477.071-.865.264-1.168.58a1.878 1.878 0 0 0-.373.571.61.61 0 0 1-.063.115c-.598.806-2.422 5.582-5.027 13.16-.692 2.012-.984 2.882-1.086 3.242-.93 3.238-1.24 6.1-.925 8.532.112.867.31 1.692.58 2.413.412 1.098 1.01 2.036 1.628 2.552.787.655 1.611 1.023 2.53 1.128.19.022.697.019.907-.007 1.072-.125 2.169-.606 3.31-1.452.512-.38 1-.806 1.545-1.352.67-.67 1.253-1.349 1.847-2.144.39-.523.535-.732.89-1.293.09-.142.236-.294.314-.329.073-.032.153-.032.205.001.095.058.178.197.236.391.018.06.25.622.515 1.25l.482 1.14.122.17c.588.825 1.126 1.31 1.642 1.477.578.19 1.114-.048 1.533-.68.14-.212.196-.339.337-.757.908-2.705 2.547-6.085 4.9-10.1 2.16-3.685 5.097-8.145 7.973-12.107.783-1.079.944-1.281 1.332-1.675.335-.34.495-.446.564-.37.061.067-.005.348-.179.76-.083.197-.316.827-.596 1.613-2.719 7.625-3.98 13.735-3.69 17.871.113 1.594.475 2.89 1.008 3.602.098.132.724.764.915.924.191.16.366.295.51.392.634.424 1.187.571 1.673.444.55-.145 1.004-.667 1.266-1.456.117-.353.716-1.742 1.189-2.757 1.608-3.45 3.738-7.262 6.379-11.414a151.683 151.683 0 0 1 5.838-8.514c.392-.53.374-.507.558-.707.362-.395.677-.632.84-.632.07 0 .118.02.146.062a.54.54 0 0 1 .052.237v.076l-.328.652c-.18.358-.4.803-.489.988-1.62 3.383-3.057 7.36-4.116 11.388a34.905 34.905 0 0 0-.487 2.064c-.289 1.54-.413 2.896-.385 4.214.053 2.475.735 4.424 1.947 5.572.184.174.342.293.607.458a7.7 7.7 0 0 1 .241.158c.185.124.483.276.687.346 1.063.369 2.353.17 3.832-.59.916-.472 1.964-1.212 2.773-1.957a4.8 4.8 0 0 1 .223-.188c.284-.22.812-.783 1.395-1.483 2.075-2.493 5.297-7.164 7.42-10.76 1.504-2.545 2.36-4.337 2.534-5.307.028-.15.029-.399.002-.482-.043-.14-.106-.202-.272-.262a1.081 1.081 0 0 0-.471-.02c-.735.15-1.746.993-3.007 2.505-.741.89-1.714 2.223-2.07 2.837-.32.551-.808 1.35-1.212 1.979-1.88 2.937-3.901 5.59-5.766 7.568-1.05 1.115-1.824 1.724-2.186 1.724a.246.246 0 0 1-.163-.078c-.052-.063-.06-.135-.039-.337.29-2.634 1.212-5.951 2.753-9.906.708-1.817.778-1.979 2.564-5.93 1.665-3.683 2.195-4.886 2.389-5.415a9.155 9.155 0 0 0 .47-2.05c.043-.38.043-.415.003-.603-.316-1.476-1.085-2.562-2.314-3.265a5.724 5.724 0 0 0-2.14-.683 4.078 4.078 0 0 0-1.61.1c-2.029.516-4.522 2.514-7.38 5.909-1.432 1.704-3.022 3.87-4.39 5.984-.346.532-.518.811-.608.983-.12.228-.198.354-.284.443-.091.097-.146.12-.196.083-.049-.037-.054-.07-.032-.188.122-.64 1.076-2.835 2.442-5.625.3-.613.408-.848.519-1.147.179-.48.303-.963.352-1.381.007-.064.014-.196.014-.293a1.367 1.367 0 0 0-.041-.383c-.231-1.113-.617-1.995-1.184-2.71a4.652 4.652 0 0 0-1.563-1.267 5.302 5.302 0 0 0-2.317-.536c-.303 0-.58.042-.947.143-1.916.532-4.3 2.368-6.943 5.347a46.039 46.039 0 0 0-2.75 3.43 2.172 2.172 0 0 1-.283.33c-.227.222-.345.289-.374.212-.02-.052-.001-.092.106-.238.376-.506.924-1.424 1.5-2.513.209-.394.846-1.665 1.046-2.086l.13-.275.005-.179c.01-.378-.073-.706-.28-1.114a3.73 3.73 0 0 0-.363-.58c-.161-.216-.49-.595-.506-.581-.003.003-.142.256-.31.563-1.895 3.484-3.342 6.474-4.035 8.338-.105.282-.22.636-.242.748-.043.214-.113.292-.26.292-.102 0-.119-.014-.145-.115-.03-.118-.031-.454-.003-.648.128-.877.605-2.169 1.463-3.96.708-1.476 1.777-3.45 2.867-5.296.18-.305.21-.364.197-.376a13.492 13.492 0 0 0-2.035-1.433 88.07 88.07 0 0 0-.345-.197c-.497-.281-.896-.43-1.314-.486a3.386 3.386 0 0 0-.505-.008zm10.629 12.574c.026.029.046.145.036.215a8.485 8.485 0 0 1-.15.512c-1.476 4.662-2.332 8.668-2.507 11.728-.015.25-.02 1.016-.01 1.437.005.257-.005.339-.057.441-.069.133-.197.14-.349.02-.051-.04-.157-.812-.205-1.49a24.595 24.595 0 0 1 0-1.643c.08-1.28.251-2.461.566-3.868.467-2.086 1.26-4.52 2.176-6.671.245-.574.258-.596.369-.668.06-.038.104-.043.13-.013zm-23.585.54c.059.06.071.188.04.423-.02.154-.014.138-.24.626-1.29 2.779-2.466 5.99-3.347 9.13-.395 1.41-.767 2.952-.968 4.017a2.202 2.202 0 0 1-.1.38c-.247.665-.427.82-.547.467a1.514 1.514 0 0 1-.043-.182l-.02-.119.082-.488a52.35 52.35 0 0 1 .995-4.684 46.233 46.233 0 0 1 1.738-5.315c.511-1.28 1.103-2.551 1.628-3.494.209-.375.315-.52.495-.673.142-.12.228-.147.287-.087zm37.531 2.901c.018.031.021.067.021.193v.155l-.146.437c-.9 2.701-1.607 5.787-1.941 8.47-.097.772-.135 1.204-.14 1.58-.004.322-.02.465-.062.56-.067.15-.192.143-.34-.023-.063-.07-.063-.07-.1-.239-.192-.856-.226-1.896-.1-3.038.19-1.713.737-3.718 1.598-5.862.326-.812.793-1.835.935-2.049.093-.141.172-.22.22-.22.028 0 .04.006.055.036z" fill="#fff"/>
    </g>
    <defs>
        <filter id="c8iscsri8a" x="11.398" y="25.718" width="65.295" height="38.93" filterUnits="userSpaceOnUse" color-interpolation-filters="sRGB">
            <feFlood flood-opacity="0" result="BackgroundImageFix"/>
            <feBlend in="SourceGraphic" in2="BackgroundImageFix" result="shape"/>
            <feColorMatrix in="SourceAlpha" values="0 0 0 0 0 0 0 0 0 0 0 0 0 0 0 0 0 0 127 0" result="hardAlpha"/>
            <feOffset dy="4"/>
            <feGaussianBlur stdDeviation="2"/>
            <feComposite in2="hardAlpha" operator="arithmetic" k2="-1" k3="1"/>
            <feColorMatrix values="0 0 0 0 0 0 0 0 0 0 0 0 0 0 0 0 0 0 0.25 0"/>
            <feBlend mode="screen" in2="shape" result="effect1_innerShadow_7_120"/>
        </filter>
    </defs>
</svg>
